<svg width="20" height="20" viewBox="0 0 20 20" fill="none" xmlns="http://www.w3.org/2000/svg">
<mask id="path-1-inside-1_0:220" fill="white">
<path d="M18 11C18 12.78 17.4722 14.5201 16.4832 16.0001C15.4943 17.4802 14.0887 18.6337 12.4442 19.3149C10.7996 19.9961 8.99002 20.1743 7.24419 19.8271C5.49836 19.4798 3.89471 18.6226 2.63604 17.364C1.37737 16.1053 0.520199 14.5016 0.172932 12.7558C-0.174335 11.01 0.00389552 9.20038 0.685084 7.55585C1.36627 5.91131 2.51983 4.50571 3.99987 3.51677C5.47991 2.52784 7.21997 2 9 2V11H18Z"/>
</mask>
<path d="M18 11C18 12.78 17.4722 14.5201 16.4832 16.0001C15.4943 17.4802 14.0887 18.6337 12.4442 19.3149C10.7996 19.9961 8.99002 20.1743 7.24419 19.8271C5.49836 19.4798 3.89471 18.6226 2.63604 17.364C1.37737 16.1053 0.520199 14.5016 0.172932 12.7558C-0.174335 11.01 0.00389552 9.20038 0.685084 7.55585C1.36627 5.91131 2.51983 4.50571 3.99987 3.51677C5.47991 2.52784 7.21997 2 9 2V11H18Z" stroke="#63B4FC" stroke-width="3" mask="url(#path-1-inside-1_0:220)"/>
<path d="M20 9.5C20 8.25244 19.7543 7.0171 19.2769 5.86451C18.7994 4.71191 18.0997 3.66464 17.2175 2.78249C16.3354 1.90033 15.2881 1.20056 14.1355 0.723144C12.9829 0.245725 11.7476 -5.45325e-08 10.5 0V9.5H20Z" fill="#45EC9C"/>
</svg>
